<svg xmlns="http://www.w3.org/2000/svg" width="512" height="512" viewBox="0 0 512 512" role="img">
    <defs>
      <linearGradient id="g1" x1="0" y1="0" x2="1" y2="1">
        <stop offset="0%" stop-color="#0B3A78"/>
        <stop offset="100%" stop-color="#16B3B1"/>
      </linearGradient>
    </defs>
    <rect width="512" height="512" rx="120" fill="url(#g1)"/>
    <path d="M 146 68 H 116 V 98" fill="none" stroke="#FFFFFF" stroke-width="16" stroke-linecap="round"/>
    <path d="M 366 68 H 396 V 98" fill="none" stroke="#FFFFFF" stroke-width="16" stroke-linecap="round"/>
    <path d="M 116 318 V 348 H 146" fill="none" stroke="#FFFFFF" stroke-width="16" stroke-linecap="round"/>
    <path d="M 366 348 H 396 V 318" fill="none" stroke="#FFFFFF" stroke-width="16" stroke-linecap="round"/>
    <rect x="170" y="110" width="170" height="170" rx="10" fill="none" stroke="#FFFFFF" stroke-width="10"/><path d="M 226.66666666666666 110 V 280 M 283.3333333333333 110 V 280 M 170 166.66666666666666 H 340 M 170 223.33333333333331 H 340" fill="none" stroke="#FFFFFF" stroke-width="8"/><path d="M 188 257.3333333333333 L 204 273.3333333333333 L 242 234.33333333333331" fill="none" stroke="#16B3B1" stroke-width="14" stroke-linecap="round" stroke-linejoin="round"/><rect x="295.3333333333333" y="245.33333333333331" width="14" height="22" rx="3" fill="#16B3B1"/><rect x="317.3333333333333" y="225.33333333333331" width="14" height="42" rx="3" fill="#16B3B1"/><rect x="339.3333333333333" y="199.33333333333331" width="14" height="68" rx="3" fill="#16B3B1"/><text x="256" y="455" text-anchor="middle" font-family="Inter, DejaVu Sans, Arial, Helvetica, sans-serif" font-size="64" font-weight="800" letter-spacing="-2"><tspan fill="#0B3A78">survey</tspan><tspan fill="#16B3B1">frame</tspan></text></svg>