<svg xmlns="http://www.w3.org/2000/svg" width="1280" height="640" viewBox="0 0 1280 640" role="img"><rect width="1280" height="640" fill="#FFFFFF"/><rect x="0" y="0" width="1280" height="640" fill="#FFFFFF"/><circle cx="1180" cy="540" r="180" fill="#EAF4F7" opacity="0.85"/><circle cx="1100" cy="120" r="90" fill="#EAF4F7" opacity="0.45"/><rect x="90" y="110" width="220" height="220" rx="35.2" fill="#F7FBFC"/>
<rect x="97.15" y="117.15" width="205.7" height="205.7" rx="35.2" fill="none" stroke="#0B3A78" stroke-width="14.3"/>
<rect x="125.2" y="145.2" width="149.6" height="149.6" rx="6.6" fill="none" stroke="#0B3A78" stroke-width="6.16"/>
<path d="M 175.06666666666666 145.2 V 294.79999999999995 M 224.93333333333334 145.2 V 294.79999999999995 M 125.2 195.06666666666666 H 274.8 M 125.2 244.93333333333334 H 274.8" fill="none" stroke="#0B3A78" stroke-width="5.28" stroke-linecap="square"/>
<path d="M 135.17333333333335 272.36 L 144.14933333333335 281.336 L 162.60000000000002 258.39733333333334" fill="none" stroke="#16B3B1" stroke-width="12.1" stroke-linecap="round" stroke-linejoin="round"/>
<rect x="233.90933333333334" y="268.37066666666664" width="7.978666666666667" height="13.962666666666669" rx="2.2" fill="#16B3B1"/>
<rect x="246.87466666666666" y="258.39733333333334" width="7.978666666666667" height="23.936" rx="2.2" fill="#16B3B1"/>
<rect x="259.84000000000003" y="246.42933333333332" width="7.978666666666667" height="35.903999999999996" rx="2.2" fill="#16B3B1"/><text x="365" y="255" text-anchor="start" font-family="Inter, DejaVu Sans, Arial, Helvetica, sans-serif" font-size="122" font-weight="800" letter-spacing="-2"><tspan fill="#0B3A78">survey</tspan><tspan fill="#16B3B1">frame</tspan></text><text x="370" y="335" text-anchor="start" font-family="Inter, DejaVu Sans, Arial, Helvetica, sans-serif" font-size="40" font-weight="500" fill="#13325B">From research design to reporting</text><text x="370" y="415" text-anchor="start" font-family="Inter, DejaVu Sans, Arial, Helvetica, sans-serif" font-size="28" font-weight="500" fill="#13325B">R package for the complete survey research workflow</text><text x="370" y="465" text-anchor="start" font-family="Inter, DejaVu Sans, Arial, Helvetica, sans-serif" font-size="28" font-weight="500" fill="#13325B">Design • Build • Collect • Analyse • Report</text></svg>