<svg xmlns="http://www.w3.org/2000/svg" width="1024" height="1024" viewBox="0 0 1024 1024" role="img"><rect width="1024" height="1024" fill="#FFFFFF"/><polygon points="512.0,50.0 182.9,240.0 182.9,620.0 512.0,810.0 841.1,620.0 841.1,240.0" fill="#FFFFFF" stroke="#0B3A78" stroke-width="34" stroke-linejoin="round"/><rect x="306.3" y="204.3" width="411.4" height="411.4" rx="70.4" fill="none" stroke="#0B3A78" stroke-width="28.6"/>
<rect x="362.4" y="260.4" width="299.2" height="299.2" rx="13.2" fill="none" stroke="#0B3A78" stroke-width="12.32"/>
<path d="M 462.1333333333333 260.4 V 559.5999999999999 M 561.8666666666667 260.4 V 559.5999999999999 M 362.4 360.1333333333333 H 661.5999999999999 M 362.4 459.8666666666667 H 661.5999999999999" fill="none" stroke="#0B3A78" stroke-width="10.56" stroke-linecap="square"/>
<path d="M 382.34666666666664 514.72 L 400.29866666666663 532.672 L 437.2 486.79466666666667" fill="none" stroke="#16B3B1" stroke-width="24.2" stroke-linecap="round" stroke-linejoin="round"/>
<rect x="579.8186666666667" y="506.7413333333333" width="15.957333333333334" height="27.925333333333338" rx="4.4" fill="#16B3B1"/>
<rect x="605.7493333333333" y="486.7946666666666" width="15.957333333333334" height="47.872" rx="4.4" fill="#16B3B1"/>
<rect x="631.6800000000001" y="462.85866666666664" width="15.957333333333334" height="71.80799999999999" rx="4.4" fill="#16B3B1"/><text x="512" y="810" text-anchor="middle" font-family="Inter, DejaVu Sans, Arial, Helvetica, sans-serif" font-size="88" font-weight="800" letter-spacing="-2"><tspan fill="#0B3A78">survey</tspan><tspan fill="#16B3B1">frame</tspan></text><text x="512" y="875" text-anchor="middle" font-family="Inter, DejaVu Sans, Arial, Helvetica, sans-serif" font-size="34" font-weight="500" fill="#13325B">From research design to reporting</text></svg>